<?xml version="1.0" encoding="UTF-8"?>
<svg xmlns="http://www.w3.org/2000/svg" xmlns:xlink="http://www.w3.org/1999/xlink" version="1.1" id="Capa_1" x="0px" y="0px" viewBox="0 0 512 512" style="enable-background:new 0 0 512 512;" xml:space="preserve" width="512" height="512">
<g>
	<g>
		<g>
			<g>
				
					<polygon style="fill:none;stroke:#000000;stroke-width:15;stroke-linecap:round;stroke-linejoin:round;stroke-miterlimit:10;" points="&#10;&#9;&#9;&#9;&#9;&#9;383.769,345.574 345.856,383.433 56.322,94.571 94.235,56.712 &#9;&#9;&#9;&#9;"/>
				<path style="fill:none;stroke:#000000;stroke-width:15;stroke-linecap:round;stroke-linejoin:round;stroke-miterlimit:10;" d="&#10;&#9;&#9;&#9;&#9;&#9;M69.666,37.923l24.569,18.789L56.322,94.571L11.033,35.385c-5.218-6.82-4.594-16.472,1.459-22.555l0,0&#10;&#9;&#9;&#9;&#9;&#9;c6.03-6.06,15.588-6.709,22.375-1.519l11.735,8.974"/>
				
					<polygon style="fill:none;stroke:#000000;stroke-width:15;stroke-linecap:round;stroke-linejoin:round;stroke-miterlimit:10;" points="&#10;&#9;&#9;&#9;&#9;&#9;319.168,356.784 357.082,318.925 383.769,345.574 345.856,383.433 &#9;&#9;&#9;&#9;"/>
				
					<polygon style="fill:none;stroke:#000000;stroke-width:15;stroke-linecap:round;stroke-linejoin:round;stroke-miterlimit:10;" points="&#10;&#9;&#9;&#9;&#9;&#9;56.322,94.571 94.235,56.712 120.923,83.361 83.01,121.22 &#9;&#9;&#9;&#9;"/>
			</g>
			<g>
				<path style="fill:none;stroke:#000000;stroke-width:15;stroke-linecap:round;stroke-linejoin:round;stroke-miterlimit:10;" d="&#10;&#9;&#9;&#9;&#9;&#9;M150.971,109.304l8.519-8.511c5.524-5.516,14.48-5.516,20.004,0l149.337,149.112c5.524,5.516,5.524,14.46,0,19.976&#10;&#9;&#9;&#9;&#9;&#9;l-10.705,10.685"/>
				<g>
					
						<line style="fill:none;stroke:#000000;stroke-width:15;stroke-linecap:round;stroke-linejoin:round;stroke-miterlimit:10;" x1="305.204" y1="226.313" x2="284.514" y2="246.991"/>
					
						<line style="fill:none;stroke:#000000;stroke-width:15;stroke-linecap:round;stroke-linejoin:round;stroke-miterlimit:10;" x1="237.241" y1="159.84" x2="217.43" y2="179.641"/>
					
						<line style="fill:none;stroke:#000000;stroke-width:15;stroke-linecap:round;stroke-linejoin:round;stroke-miterlimit:10;" x1="204.289" y1="125.552" x2="185.258" y2="144.591"/>
				</g>
			</g>
		</g>
		<path style="fill:none;stroke:#000000;stroke-width:15;stroke-linecap:round;stroke-linejoin:round;stroke-miterlimit:10;" d="&#10;&#9;&#9;&#9;M443.208,467.216l56.915-57.198c5.837-5.866,5.837-15.376,0-21.241l0,0c-5.837-5.866-15.299-5.866-21.136,0l-6.738,6.771&#10;&#9;&#9;&#9;c-41.101-10.46-69.938-31.382-88.48-49.975l-37.913,37.859c18.717,18.768,38.17,45.278,50.439,88.447l-6.634,6.667&#10;&#9;&#9;&#9;c-5.837,5.866-5.837,15.376,0,21.241l0,0c5.837,5.866,15.299,5.865,21.136,0l11.798-11.857"/>
		
			<line style="fill:none;stroke:#000000;stroke-width:15;stroke-linecap:round;stroke-linejoin:round;stroke-miterlimit:10;" x1="396.295" y1="471.88" x2="436.496" y2="431.479"/>
		
			<line style="fill:none;stroke:#000000;stroke-width:15;stroke-linecap:round;stroke-linejoin:round;stroke-miterlimit:10;" x1="472.249" y1="395.549" x2="456.931" y2="410.942"/>
	</g>
	<g>
		
			<ellipse style="fill:none;stroke:#000000;stroke-width:15;stroke-linecap:round;stroke-linejoin:round;stroke-miterlimit:10;" cx="140.634" cy="122.093" rx="13.629" ry="13.635"/>
		
			<ellipse style="fill:none;stroke:#000000;stroke-width:15;stroke-linecap:round;stroke-linejoin:round;stroke-miterlimit:10;" cx="174.235" cy="155.709" rx="13.629" ry="13.635"/>
		
			<ellipse style="fill:none;stroke:#000000;stroke-width:15;stroke-linecap:round;stroke-linejoin:round;stroke-miterlimit:10;" cx="207.836" cy="189.325" rx="13.629" ry="13.635"/>
		<g>
			
				<ellipse style="fill:none;stroke:#000000;stroke-width:15;stroke-linecap:round;stroke-linejoin:round;stroke-miterlimit:10;" cx="275.039" cy="256.556" rx="13.629" ry="13.635"/>
			
				<ellipse style="fill:none;stroke:#000000;stroke-width:15;stroke-linecap:round;stroke-linejoin:round;stroke-miterlimit:10;" cx="308.64" cy="290.172" rx="13.629" ry="13.635"/>
		</g>
	</g>
</g>















</svg>
