<?xml version="1.0" encoding="iso-8859-1"?>
<!-- Generator: Adobe Illustrator 19.0.0, SVG Export Plug-In . SVG Version: 6.00 Build 0)  -->
<svg version="1.1" id="Capa_1" xmlns="http://www.w3.org/2000/svg" xmlns:xlink="http://www.w3.org/1999/xlink" x="0px" y="0px"
	 viewBox="0 0 512 512" style="enable-background:new 0 0 512 512;" xml:space="preserve">
<g>
	<g>
		<path d="M436.338,41.9V15.4c0-8.461-6.883-15.344-15.344-15.344h-41.978c-5.319,0-10.018,2.686-12.826,6.77
			c-68.202-18.336-140.696,0.824-190.756,50.883c-75.128,75.128-76.911,196.036-5.258,273.318l-14.943,14.549l-8.971-8.971
			c-7.599-7.599-19.969-7.599-27.568,0c-25.635,25.635-87.21,87.21-110.074,110.074c-11.348,11.348-11.348,29.812,0,41.16
			l16.012,16.012c10.869,10.868,28.552,10.868,39.422,0c2.365-2.365,100.795-100.795,110.942-110.942
			c7.599-7.601,7.598-19.968,0-27.567l-9.16-9.16l14.938-14.544c32.906,30.518,75.35,48.935,120.34,52.048
			c0.176,0.012,0.351,0.019,0.525,0.019c3.905,0,7.197-3.026,7.472-6.98c0.285-4.13-2.831-7.711-6.962-7.997
			c-93.564-6.474-169.373-83.872-169.373-181.616c0-120.614,114.698-207.479,230.679-175.492v19.277
			C257.902,8.069,151.064,87.518,151.064,197.32c0,90.02,73.056,163.772,163.773,163.772c77.167,0,117.9-50.971,119.463-51.753
			c0,0,0.024-0.026,0.021-0.024c0.057-0.061,0.114-0.123,0.169-0.187c28.454-30.436,44.118-70.131,44.118-111.808
			c0-40.765-14.987-79.636-42.268-109.798V61.411c38.251,34.232,60.557,82.811,60.557,135.698
			c0,93.043-69.415,170.341-161.131,180.856c-4.113,0.472-7.065,4.188-6.595,8.303c0.472,4.114,4.184,7.067,8.303,6.595
			c99.225-11.376,174.416-94.995,174.417-195.752C511.889,135.567,483.964,79.223,436.338,41.9z M53.45,493.246
			c-5.021,5.021-13.192,5.021-18.214,0l-16.012-16.012c-5.502-5.502-5.502-14.453,0-19.955l57.761-57.761l35.096,35.096
			L53.45,493.246z M122.684,424.013l-35.096-35.096l10.615-10.615l35.096,35.096L122.684,424.013z M164.393,382.304l-20.49,20.49
			l-35.096-35.096l20.492-20.491c1.738-1.739,4.623-1.738,6.361,0l28.735,28.735C166.132,377.683,166.132,380.565,164.393,382.304z
			 M247.676,330.052c-16.23-8.246-30.758-19.377-42.895-32.721V186.178c0-0.315,0.256-0.571,0.57-0.571h42.326V330.052z
			 M305.565,345.79c-14.695-0.9-29.045-3.945-42.894-9.141c0-1.674,0-204.616,0-207.325c0-0.314,0.255-0.57,0.567-0.57h42.327
			V345.79z M305.565,72.472v41.288h-42.327c-8.581,0-15.561,6.982-15.561,15.564v41.288h-42.326
			c-8.583,0-15.564,6.982-15.564,15.565v91.663c-63.67-98.534,7.483-229.298,125.049-229.298c16.683,0,33.012,2.744,48.619,8.144
			v0.221h-42.325C312.546,56.907,305.565,63.89,305.565,72.472z M363.455,337.954c-14.135,4.892-28.686,7.516-42.895,8.032V72.473
			c0-0.314,0.256-0.57,0.57-0.57h42.326V337.954z M463.612,197.32c0,31.048-9.575,60.883-27.274,85.863v-69.027
			c0-4.141-3.356-7.497-7.497-7.497s-7.497,3.357-7.497,7.497v87.017c-12.411,12.739-27.097,23.151-42.894,30.651
			c0-17.068,0-301.911,0-315.827V15.62c0-0.314,0.255-0.57,0.567-0.57h41.978c0.192,0,0.35,0.157,0.35,0.35
			c0,11.513,0,157.403,0,163.77c0,4.14,3.356,7.497,7.497,7.497s7.497-3.357,7.497-7.497v-67.713
			C454.036,136.437,463.612,166.272,463.612,197.32z"/>
	</g>
</g>
<g>
</g>
<g>
</g>
<g>
</g>
<g>
</g>
<g>
</g>
<g>
</g>
<g>
</g>
<g>
</g>
<g>
</g>
<g>
</g>
<g>
</g>
<g>
</g>
<g>
</g>
<g>
</g>
<g>
</g>
</svg>
