<svg xmlns="http://www.w3.org/2000/svg" version="1.1" xmlns:xlink="http://www.w3.org/1999/xlink" xmlns:svgjs="http://svgjs.dev/svgjs" viewBox="0 0 800 800"><defs><linearGradient x1="50%" y1="0%" x2="50%" y2="100%" id="ccchaos-grad"><stop stop-color="hsl(206, 75%, 49%)" stop-opacity="1" offset="0%"></stop><stop stop-color="hsl(331, 90%, 56%)" stop-opacity="1" offset="100%"></stop></linearGradient></defs><g stroke-width="1" stroke="url(#ccchaos-grad)" fill="none" stroke-linecap="round"><path d="M388.51 57.95Q398.67 63.48 409.17 69.38 419.96 75.64 431.02 82.25 442.29 89.15 453.71 96.3 465.22 103.64 476.76 111.09 488.24 118.6 499.61 126.08 510.78 133.45 521.7 140.65 532.29 147.6 542.51 154.23 552.3 160.5 561.62 166.36 570.46 171.78 578.8 176.74 593.77 185.08 607.38 192.17 619.24 197.68 630.45 202.64 641.46 207.56 652.91 212.99 661.12 223.04 662.9 239.94 665.05 250 669.36 260.06 675.39 270.12 682.51 280.18 689.99 290.24 697.06 300.3 702.99 310.36 707.16 320.42 709.15 330.48 708.76 340.55 706.02 350.61 701.21 360.67 694.83 370.73 687.55 380.79 680.1 390.85 673.26 400.91 667.73 410.97 664.09 421.03 662.71 431.09 663.72 441.15 667.04 451.21 672.31 461.28 678.99 471.34 686.39 481.4 693.75 491.46 700.31 501.52 705.4 511.58 708.48 521.64 709.25 531.7 707.62 541.76 696.76 549.02 685.44 556.98 673.73 565.56 661.71 574.67 649.48 584.17 637.12 593.94 624.72 603.82 612.39 613.67 600.21 623.34 588.25 632.68 576.6 641.55 565.31 649.83 554.44 657.41 544.02 664.21 534.09 670.16 524.65 675.23 515.7 679.42 507.24 682.74 491.8 686.72 477.44 688.81 464.28 689.08 451.44 689.19 438.44 690.65 424.94 693.82 417.78 696.7 410.32 700.47 399.55 695.15 388.63 690.78 377.62 687.33 366.59 684.73 355.59 682.9 344.68 681.72 333.9 681.06 323.3 680.77 312.92 680.69 302.79 680.66 292.93 680.52 283.35 680.1 274.05 679.26 265.04 677.87 256.29 675.8 247.79 672.98 239.52 669.33 231.43 664.81 223.5 659.42 215.69 653.16 207.95 646.09 200.25 638.26 192.54 629.78 184.79 620.75 176.97 611.31 169.04 601.6 160.99 591.76 152.78 581.94 144.42 572.3 135.9 562.96 127.21 554.07 118.36 545.73 118.69 535.63 118.54 525.52 117.91 515.42 116.89 505.31 115.56 495.21 114.07 485.1 112.58 475 111.23 464.89 110.17 454.79 109.5 444.68 109.29 434.58 109.57 424.47 110.31 414.37 111.42 404.26 112.8 394.16 114.31 384.05 115.78 373.95 117.07 363.84 118.04 353.74 118.59 343.63 118.67 333.53 118.27 323.42 117.43 313.32 116.23 303.21 114.8 293.11 113.29 283 111.85 272.9 110.64 262.79 109.76 252.69 109.33 242.58 114.21 225.94 128.33 216.73 137.79 214.26 147.4 211.9 157.16 209.57 167.05 207.17 177.04 204.62 187.12 201.83 197.25 198.74 207.39 195.28 217.5 191.41 227.55 187.1 237.5 182.31 247.3 177.06 256.92 171.35 266.34 165.22 275.51 158.69 284.43 151.82 293.07 144.67 301.44 137.32 309.52 129.83 317.34 122.29 324.91 114.76 332.26 107.33 339.42 100.07 346.44 93.03 353.36 86.29 360.24 79.87 367.14 73.81 374.11 68.13 384.86 60.4 388.51 57.95" stroke-dasharray="11 3" transform="rotate(0, 400, 400)" opacity="0.55"></path><path d="M393.37 72.56Q403.78 77.83 414.38 83.47 425.13 89.45 435.97 95.76 446.86 102.35 457.72 109.18 468.51 116.2 479.16 123.36 489.62 130.58 499.83 137.81 509.73 144.97 519.29 152 528.47 158.83 537.24 165.4 545.58 171.66 553.48 177.55 567.8 187.93 580.93 197.02 592.52 204.06 603.51 210.05 614.24 214.83 625.26 219.29 637.55 224.03 651.01 229.39 650.13 239.03 651.4 248.67 654.7 258.31 659.72 267.94 665.99 277.58 672.92 287.22 679.85 296.86 686.14 306.5 691.19 316.14 694.54 325.78 695.85 335.42 695.02 345.06 692.12 354.7 687.42 364.34 681.36 373.98 674.52 383.62 667.53 393.26 661.06 402.9 655.71 412.54 651.98 422.18 650.23 431.82 650.62 441.46 653.12 451.1 657.48 460.74 663.3 470.38 670.04 480.02 677.05 489.66 683.68 499.3 689.3 508.94 693.4 518.58 695.57 528.22 695.62 537.86 686.05 545.68 675.99 554.02 665.49 562.79 654.61 571.88 643.42 581.18 631.99 590.55 620.39 599.87 608.7 609.01 597.01 617.84 585.38 626.24 573.88 634.11 562.6 641.36 551.58 647.92 540.88 653.72 530.55 658.73 520.61 662.95 511.09 666.39 502 669.08 485.3 672.22 469.8 673.83 455.95 674.11 442.81 674.41 430.3 676.1 417.81 679.4 402.86 681.5 383.63 676.53 373.06 673.12 362.61 670.49 352.31 668.56 342.22 667.24 332.35 666.41 322.73 665.97 313.38 665.77 304.3 665.67 287.11 665.07 270.69 663.55 255.33 659.4 240.42 653.16 233.14 648.7 225.9 643.46 218.67 637.45 211.4 630.7 204.07 623.29 196.65 615.28 189.12 606.77 181.44 597.87 173.62 588.71 165.63 579.4 157.48 570.08 149.16 560.87 140.69 551.89 132.07 543.27 132.06 533.57 131.57 523.87 130.65 514.17 129.39 504.48 127.9 494.78 126.33 485.08 124.82 475.38 123.52 465.68 122.54 455.99 121.98 446.29 121.89 436.59 122.28 426.89 123.12 417.2 124.32 407.5 125.77 397.8 127.34 388.1 128.87 378.4 130.23 368.71 131.28 359.01 131.93 349.31 132.12 339.61 131.82 329.92 131.07 320.22 129.94 310.52 128.53 300.82 126.98 291.13 125.42 281.43 124.02 271.73 122.89 262.04 122.15 252.34 126.25 236.59 139.33 228.3 148.19 226.14 157.22 223.98 166.41 221.73 175.74 219.32 185.21 216.68 194.81 213.74 204.49 210.46 214.25 206.8 224.04 202.71 233.83 198.19 243.59 193.23 253.28 187.84 262.87 182.04 272.31 175.87 281.57 169.36 290.63 162.57 299.46 155.56 308.04 148.39 316.36 141.14 324.4 133.87 332.17 126.64 339.68 119.54 346.93 112.61 353.96 105.91 360.79 99.49 367.45 93.39 386.91 77.49 393.37 72.56" stroke-dasharray="13 12" transform="rotate(4.809523809523809, 400, 400)" opacity="0.22"></path><path d="M399.66 87.16Q409.87 92.19 420.11 97.56 430.35 103.26 440.53 109.25 450.6 115.53 460.51 122.04 470.23 128.74 479.7 135.58 488.88 142.51 497.75 149.47 506.27 156.39 514.43 163.22 522.22 169.9 529.62 176.37 543.15 188.31 555.67 199.23 566.87 208.22 577.56 216.01 588.01 222 598.68 227.12 610.39 231.36 623.07 235.45 634.16 243.35 640.75 258.35 644.92 267.57 650.37 276.8 656.64 286.03 663.2 295.26 669.48 304.49 674.96 313.72 679.16 322.95 681.72 332.18 682.43 341.41 681.22 350.64 678.2 359.87 673.63 369.1 667.9 378.33 661.49 387.56 654.95 396.79 648.84 406.02 643.69 415.25 639.92 424.48 637.87 433.71 637.71 442.94 639.45 452.16 642.94 461.39 647.89 470.62 653.87 479.85 660.38 489.08 666.85 498.31 672.73 507.54 677.53 516.77 680.84 526 682.36 535.23 674.02 543.33 665.21 551.78 655.95 560.46 646.29 569.29 636.25 578.14 625.91 586.92 615.3 595.51 604.49 603.8 593.55 611.7 582.54 619.12 571.52 625.98 560.56 632.21 549.72 637.78 539.05 642.64 528.61 646.8 518.44 650.25 508.58 653.02 499.05 655.17 481.27 657.61 464.6 658.87 449.7 659.2 435.73 659.68 422.92 661.59 410.55 664.99 396.45 667.09 378.47 662.3 368.73 658.94 359.2 656.28 349.91 654.27 340.87 652.82 323.73 651.39 307.39 650.74 292.24 650.22 277.69 649.08 263.83 645.88 250.2 640.96 236.59 632.7 222.81 622.35 215.76 615.99 208.57 609.04 201.24 601.54 193.76 593.58 186.11 585.25 178.3 576.65 170.32 567.89 162.2 559.07 153.92 550.3 145.52 541.69 145.15 532.39 144.33 523.1 143.14 513.8 141.69 504.51 140.09 495.21 138.48 485.91 137 476.62 135.78 467.32 134.92 458.03 134.49 448.73 134.53 439.44 135.03 430.14 135.96 420.84 137.24 411.55 138.75 402.25 140.36 392.96 141.95 383.66 143.37 374.37 144.5 365.07 145.24 355.77 145.54 346.48 145.37 337.18 144.73 327.89 143.69 318.59 142.34 309.3 140.79 300 139.17 290.7 137.61 281.41 136.27 272.11 135.24 262.82 138.51 247.86 150.51 240.22 158.76 238.2 167.16 236.08 175.73 233.78 184.45 231.26 193.33 228.45 202.35 225.31 211.5 221.81 220.76 217.91 230.1 213.61 239.51 208.9 248.95 203.79 258.39 198.29 267.8 192.44 277.14 186.27 286.38 179.82 295.49 173.15 304.43 166.31 313.18 159.36 321.71 152.37 330.01 145.39 338.06 138.49 345.84 131.72 353.36 125.13 360.62 118.78 374.29 107.08 387.33 96.35 396.61 89.37 399.66 87.16" stroke-dasharray="10 32" transform="rotate(9.619047619047619, 400, 400)" opacity="0.81"></path><path d="M406.02 101.76Q415.58 106.55 425.04 111.65 434.36 117.05 443.51 122.74 452.46 128.69 461.17 134.87 469.6 141.24 477.75 147.76 485.59 154.38 493.11 161.05 500.29 167.72 507.16 174.32 519.81 187.05 531.62 199.16 542.35 209.82 552.68 219.45 562.83 227.24 573.19 233.95 584.43 239.11 596.5 243.57 610.32 247.38 625.36 251.15 627.34 259.98 630.83 268.8 635.56 277.62 641.18 286.45 647.24 295.27 653.29 304.09 658.85 312.92 663.5 321.74 666.87 330.56 668.72 339.39 668.89 348.21 667.37 357.03 664.28 365.86 659.86 374.68 654.44 383.5 648.46 392.33 642.36 401.15 636.62 409.97 631.67 418.8 627.91 427.62 625.62 436.44 624.98 445.27 626.03 454.09 628.7 462.91 632.78 471.74 637.96 480.56 643.83 489.38 649.94 498.21 655.83 507.03 661.04 515.85 662.93 533.14 653.06 549.88 645.02 558.22 636.57 566.56 627.74 574.78 618.56 582.8 609.07 590.53 599.31 597.9 589.33 604.82 579.18 611.23 568.9 617.09 558.56 622.35 548.21 626.99 537.89 631 527.66 634.38 517.57 637.15 507.67 639.35 497.98 641.03 488.54 642.25 479.38 643.08 462.14 643.86 445.86 644.29 431.14 645.17 417.27 646.9 404.56 650.9 392.34 656.67 383.23 652.03 374.36 648.07 357.46 642.41 341.34 638.49 326.45 636.78 312.22 635.88 298.88 635.36 285.89 634.47 273.21 632.05 260.52 628.25 247.54 621.63 234.25 613.15 227.37 607.83 220.35 601.92 213.16 595.47 205.82 588.52 198.31 581.13 190.65 573.39 182.84 565.38 174.89 557.17 166.82 548.87 158.65 540.56 157.91 531.67 156.79 522.77 155.38 513.88 153.78 504.99 152.13 496.1 150.53 487.2 149.13 478.31 148.03 469.42 147.3 460.53 147.02 451.63 147.19 442.74 147.81 433.85 148.83 424.96 150.17 416.06 151.73 407.17 153.38 398.28 155 389.38 156.47 380.49 157.67 371.6 158.51 362.71 158.92 353.81 158.87 344.92 158.37 336.03 157.46 327.13 156.2 318.24 154.69 309.35 153.05 300.45 151.41 291.56 149.89 282.67 148.6 273.78 151.07 259.52 161.98 252.26 177.43 247.91 193.33 242.87 201.56 239.83 209.93 236.45 218.46 232.7 227.13 228.58 235.92 224.08 244.82 219.21 253.8 213.97 262.84 208.41 271.92 202.55 281 196.42 290.05 190.08 299.05 183.56 307.97 176.93 316.76 170.24 325.41 163.53 333.89 156.87 342.17 150.3 350.24 143.88 358.07 137.65 365.66 131.64 379.95 120.6 393.5 110.46 402.94 103.86 406.02 101.76" stroke-dasharray="20 23" transform="rotate(14.428571428571427, 400, 400)" opacity="0.49"></path><path d="M411.09 116.37Q428 125.74 444.07 136.23 459.15 147.7 473.15 159.92 486.03 172.57 497.86 185.31 508.79 197.76 519.06 209.57 528.93 220.43 538.74 230.08 548.85 238.4 559.59 245.36 571.29 251.04 584.2 255.65 598.51 259.49 614.3 262.94 621.46 279.77 632.03 296.6 643.13 313.44 651.74 330.27 655.53 347.1 653.46 363.94 646.09 380.77 635.43 397.61 624.38 414.44 615.95 431.28 612.42 448.11 614.77 464.94 622.34 481.78 633.09 498.61 644.08 515.45 652.33 532.28 639.6 547.97 625.39 563.41 609.75 577.99 592.8 591.18 574.78 602.55 555.96 611.79 536.69 618.81 517.3 623.7 498.14 626.71 479.51 628.29 461.67 628.99 444.79 629.48 429 630.42 414.29 632.48 400.63 636.21 387.87 642.06 372.3 633.85 357.69 627.98 343.99 624.22 331.07 622.11 318.74 621.11 306.79 620.56 295.01 619.79 283.16 618.15 271.06 615.08 258.53 610.16 245.46 603.12 231.77 593.87 217.47 582.53 202.58 569.38 187.19 554.84 171.41 539.47 168.97 522.5 165.72 505.53 162.54 488.56 160.29 471.59 159.6 454.62 160.64 437.65 163.14 420.68 166.41 403.71 169.57 386.74 171.75 369.77 172.36 352.8 171.24 335.83 168.69 318.87 165.4 301.9 162.27 284.93 160.16 267.96 173.83 264.18 187.93 259.63 202.56 254 217.79 247.07 233.63 238.76 250.04 229.09 266.93 218.21 284.17 206.35 301.57 193.84 318.93 181.03 336.02 168.31 352.64 156.03 368.58 144.51 383.68 133.98 404.48 120.48 411.09 116.37" stroke-dasharray="26 7" transform="rotate(19.238095238095237, 400, 400)" opacity="0.09"></path><path d="M413.75 130.97Q428.23 139.82 441.8 149.71 454.43 160.51 466.14 172.03 477.02 184.02 487.21 196.18 496.91 208.18 506.39 219.72 515.9 230.5 525.73 240.28 536.17 248.9 547.46 256.27 559.8 262.4 573.34 267.42 588.16 271.5 604.24 274.95 612.48 290.96 622.78 306.97 632.66 322.98 639.69 339 642.18 355.01 639.51 371.02 632.34 387.04 622.4 403.05 612.13 419.06 604.01 435.08 600.03 451.09 601.14 467.1 607.09 483.12 616.42 499.13 626.86 515.15 635.88 531.16 624.94 545.7 612.79 559.58 599.37 572.34 584.72 583.59 568.95 593.04 552.22 600.56 534.76 606.15 516.83 609.95 498.73 612.26 480.71 613.49 463.05 614.13 445.96 614.75 429.63 615.89 414.17 618.11 399.63 621.84 386.02 627.46 372.89 619.64 360.54 613.9 348.82 610.03 337.57 607.69 326.58 606.44 315.65 605.75 304.59 605.06 293.24 603.82 281.44 601.53 269.11 597.78 256.19 592.28 242.67 584.86 228.58 575.52 214 564.4 199.02 551.76 183.78 537.98 180.87 521.85 177.51 505.71 174.51 489.58 172.6 473.44 172.24 457.3 173.52 441.17 176.13 425.03 179.44 408.9 182.64 392.76 184.94 376.63 185.8 360.49 185 344.36 182.74 328.22 179.56 312.09 176.24 295.95 173.59 279.82 186.13 275.74 198.99 270.71 212.29 264.53 226.11 257.1 240.51 248.41 255.49 238.54 271.03 227.67 287.06 216.05 303.45 203.97 320.05 191.74 336.69 179.71 353.16 168.17 369.27 157.37 384.84 147.51 406.73 134.83 413.75 130.97" stroke-dasharray="24 18" transform="rotate(24.047619047619047, 400, 400)" opacity="0.70"></path><path d="M413.44 145.57Q425.54 153.91 436.85 163.18 447.43 173.31 457.38 184.12 466.86 195.42 476.04 206.95 485.13 218.45 494.36 229.64 503.95 240.25 514.13 250.06 525.07 258.89 536.94 266.62 549.85 273.22 563.84 278.71 578.91 283.21 594.98 286.9 603.7 302.07 613.34 317.25 621.83 332.42 627.34 347.6 628.66 362.77 625.52 377.95 618.59 393.12 609.37 408.29 599.86 423.47 592.1 438.64 587.78 453.81 587.83 468.99 592.23 484.16 600.03 499.33 609.56 514.51 618.75 529.68 609.29 542.73 598.9 554.85 587.48 565.7 574.99 575.03 561.44 582.71 546.91 588.68 531.53 593.03 515.46 595.94 498.92 597.7 482.11 598.69 465.27 599.33 448.61 600.09 432.32 601.43 416.58 603.77 401.51 607.49 387.18 612.85 376.18 605.44 365.65 599.84 355.43 595.91 345.33 593.37 335.19 591.88 324.84 591.02 314.15 590.33 302.99 589.35 291.31 587.65 279.06 584.85 266.24 580.66 252.88 574.88 239.05 567.41 224.85 558.28 210.37 547.63 195.74 535.7 192.53 520.42 189.21 505.15 186.49 489.87 184.95 474.6 184.94 459.32 186.44 444.04 189.15 428.77 192.47 413.49 195.68 398.22 198.09 382.94 199.19 367.66 198.73 352.39 196.81 337.11 193.85 321.83 190.49 306.56 187.45 291.28 198.93 286.71 210.62 281.11 222.63 274.39 235.06 266.52 248 257.54 261.48 247.59 275.52 236.85 290.1 225.56 305.17 213.99 320.63 202.41 336.37 191.1 352.22 180.3 368.02 170.23 383.61 161.04 406.12 149.19 413.44 145.57" stroke-dasharray="30 16" transform="rotate(28.857142857142854, 400, 400)" opacity="0.79"></path><path d="M410.23 160.17Q420.31 167.99 429.86 176.65 438.98 186.1 447.81 196.2 456.52 206.78 465.28 217.64 474.26 228.57 483.64 239.32 493.58 249.66 504.24 259.39 515.71 268.33 528.07 276.35 541.34 283.36 555.52 289.35 570.53 294.35 586.27 298.47 594.93 312.78 603.59 327.1 610.62 341.41 614.68 355.72 614.99 370.04 611.49 384.35 604.86 398.66 596.35 412.97 587.58 427.29 580.22 441.6 575.68 455.91 574.81 470.22 577.78 484.53 584.03 498.85 592.37 513.16 601.2 527.47 592.89 538.79 583.94 549.03 574.23 557.99 563.65 565.53 552.18 571.59 539.8 576.22 526.57 579.53 512.57 581.72 497.94 583.08 482.8 583.92 467.34 584.61 451.73 585.52 436.15 587.03 420.75 589.48 405.7 593.15 391.12 598.25 381.68 591.25 372.39 585.83 363.08 581.86 353.62 579.16 343.87 577.45 333.74 576.39 323.13 575.63 312 574.79 300.33 573.52 288.13 571.46 275.44 568.35 262.32 563.97 248.85 558.19 235.12 550.94 221.25 542.27 207.32 532.29 203.99 517.9 200.85 503.51 198.5 489.12 197.38 474.73 197.71 460.34 199.42 445.95 202.19 431.56 205.49 417.17 208.7 402.78 211.2 388.39 212.52 374 212.4 359.61 210.87 345.22 208.22 330.83 204.96 316.44 201.7 302.05 212.21 296.89 222.83 290.71 233.65 283.5 244.77 275.28 256.28 266.14 268.26 256.24 280.74 245.75 293.75 234.9 307.28 223.91 321.3 213.03 335.73 202.47 350.5 192.44 365.47 183.11 380.52 174.58 402.86 163.55 410.23 160.17" stroke-dasharray="33 13" transform="rotate(33.666666666666664, 400, 400)" opacity="0.95"></path><path d="M404.8 174.78Q413.45 182.06 421.86 190.12 430.16 198.88 438.48 208.26 446.96 218.1 455.74 228.27 464.94 238.56 474.7 248.79 485.09 258.77 496.2 268.3 508.06 277.24 520.69 285.42 534.07 292.77 548.12 299.21 562.76 304.74 577.87 309.39 585.99 322.82 593.44 336.24 598.99 349.66 601.72 363.08 601.17 376.51 597.44 389.93 591.14 403.35 583.32 416.78 575.28 430.2 568.36 443.62 563.7 457.05 562.08 470.47 563.77 483.89 568.49 497.32 575.45 510.74 583.5 524.16 576.03 533.64 568.2 542.02 559.86 549.18 550.9 555.08 541.23 559.74 530.83 563.24 519.67 565.71 507.77 567.36 495.19 568.43 482.01 569.2 468.33 569.98 454.28 571.05 439.98 572.71 425.57 575.22 411.19 578.81 396.97 583.65 388.45 577.07 379.78 571.84 370.86 567.89 361.59 565.06 351.9 563.14 341.74 561.89 331.08 561.01 319.91 560.22 308.27 559.21 296.18 557.7 283.72 555.44 270.96 552.22 257.97 547.88 244.86 542.32 231.7 535.51 218.59 527.48 215.33 514.01 212.5 500.54 210.59 487.06 209.9 473.59 210.56 460.12 212.45 446.64 215.26 433.17 218.52 419.7 221.7 406.22 224.25 392.75 225.77 379.28 225.99 365.8 224.89 352.33 222.63 338.86 219.61 325.38 216.31 311.91 225.96 306.14 235.62 299.44 245.36 291.83 255.29 283.4 265.48 274.25 276.02 264.53 286.97 254.41 298.37 244.09 310.27 233.77 322.65 223.62 335.52 213.85 348.82 204.59 362.49 195.99 376.45 188.13 397.7 177.91 404.8 174.78" stroke-dasharray="6 32" transform="rotate(38.476190476190474, 400, 400)" opacity="0.46"></path><path d="M398.34 189.38Q406.2 196.14 414.08 203.59 422.11 211.67 430.39 220.31 439.01 229.4 448.07 238.83 457.64 248.44 467.79 258.08 478.55 267.59 489.95 276.82 501.97 285.61 514.58 293.83 527.72 301.38 541.33 308.19 555.29 314.19 569.5 319.39 576.71 331.9 582.82 344.41 586.94 356.92 588.48 369.43 587.23 381.94 583.36 394.44 577.43 406.95 570.29 419.46 562.96 431.97 556.5 444.48 551.83 456.98 549.63 469.49 550.2 482 553.47 494.51 558.97 507.01 565.91 519.52 559.04 527.16 552.01 533.76 544.71 539.3 537.03 543.77 528.86 547.25 520.14 549.82 510.83 551.65 500.89 552.91 490.33 553.8 479.18 554.57 467.48 555.45 455.29 556.66 442.7 558.45 429.8 561 416.69 564.49 403.48 569.05 395.27 562.89 386.74 557.9 377.82 553.99 368.46 551.07 358.64 548.98 348.37 547.53 337.65 546.51 326.5 545.68 314.99 544.81 303.16 543.67 291.09 542.04 278.84 539.73 266.5 536.59 254.14 532.48 241.83 527.35 229.64 521.15 226.61 508.62 224.21 496.09 222.78 483.56 222.53 471.03 223.49 458.49 225.53 445.96 228.35 433.43 231.55 420.9 234.67 408.37 237.26 395.84 238.94 383.31 239.49 370.78 238.82 358.25 237.02 345.72 234.35 333.18 231.2 320.65 240.1 314.34 248.91 307.23 257.72 299.39 266.6 290.91 275.62 281.9 284.86 272.5 294.39 262.88 304.26 253.18 314.53 243.57 325.24 234.21 336.39 225.23 348 216.76 360.05 208.89 372.49 201.68 391.81 192.28 398.34 189.38" stroke-dasharray="15 18" transform="rotate(43.285714285714285, 400, 400)" opacity="0.51"></path><path d="M392.24 203.98Q399.85 210.22 407.68 217.05 415.82 224.45 424.32 232.36 433.24 240.69 442.64 249.36 452.52 258.24 462.92 267.22 473.84 276.18 485.24 284.97 497.1 293.49 509.36 301.6 521.96 309.22 534.81 316.24 547.83 322.62 560.91 328.3 566.96 339.87 571.66 351.44 574.45 363 574.98 374.57 573.18 386.13 569.27 397.7 563.74 409.26 557.26 420.83 550.63 432.4 544.65 443.96 540.06 455.53 537.43 467.09 537.07 478.66 539.02 490.22 542.63 510.52 535.72 524.26 522.29 531.29 508.05 536.07 491.78 538.33 474.06 540.04 464.32 541.03 454.1 542.38 443.42 544.26 432.35 546.82 420.93 550.18 409.23 554.45 400.93 548.73 392.23 543.98 383.12 540.16 373.59 537.2 363.65 534.97 353.33 533.34 342.67 532.15 331.72 531.23 320.52 530.4 309.14 529.47 297.65 528.27 286.1 526.64 274.56 524.42 263.09 521.5 251.74 517.78 240.56 513.2 237.93 501.64 236.04 490.08 235.12 478.51 235.29 466.95 236.52 455.39 238.67 443.83 241.47 432.26 244.58 420.7 247.61 409.14 250.2 397.57 252.03 386.01 252.87 374.44 252.63 362.88 251.32 351.32 249.12 339.75 246.29 328.19 254.52 321.47 262.61 314.12 270.63 306.22 278.61 297.86 286.64 289.15 294.76 280.22 303.04 271.19 311.54 262.2 320.32 253.36 329.42 244.81 338.89 236.64 348.75 228.95 359.02 221.8 369.7 215.24 386.51 206.64 392.24 203.98" stroke-dasharray="31 2" transform="rotate(48.095238095238095, 400, 400)" opacity="0.25"></path><path d="M387.81 218.58Q395.52 224.29 403.56 230.52 411.94 237.24 420.71 244.41 429.88 251.97 439.47 259.85 449.46 267.97 459.84 276.24 470.59 284.55 481.68 292.81 493.04 300.91 504.63 308.76 516.38 316.27 528.22 323.35 540.07 329.94 551.85 335.98 556.6 346.58 559.94 357.19 561.53 367.79 561.22 378.39 559.02 388.99 555.17 399.59 550.07 410.19 544.24 420.79 538.27 431.4 532.8 442 528.38 452.6 525.46 463.2 524.35 473.8 525.17 484.41 526.81 502.49 519.69 513.62 507.49 518.65 495 522.07 481.36 523.94 466.73 525.64 458.76 526.74 450.38 528.2 441.6 530.14 432.43 532.67 422.88 535.88 412.99 539.85 404.44 534.57 395.51 530.1 386.24 526.41 376.63 523.44 366.73 521.11 356.57 519.33 346.2 517.98 335.67 516.93 325.02 516.06 314.31 515.22 303.59 514.28 292.91 513.1 282.33 511.55 271.87 509.54 261.58 506.96 251.49 503.73 249.38 493.15 248.04 482.57 247.64 471.99 248.19 461.41 249.65 450.84 251.87 440.26 254.62 429.68 257.61 419.1 260.53 408.52 263.09 397.94 265.02 387.36 266.12 376.78 266.28 366.2 265.48 355.63 263.81 345.05 261.43 334.47 269.08 327.54 276.56 320.15 283.91 312.39 291.16 304.33 298.36 296.08 305.56 287.73 312.81 279.39 320.15 271.17 327.65 263.15 335.34 255.43 343.29 248.08 351.51 241.16 360.06 234.73 368.94 228.82 383 221.01 387.81 218.58" stroke-dasharray="31 3" transform="rotate(52.904761904761905, 400, 400)" opacity="0.19"></path><path d="M386.01 233.18Q393.93 238.37 402.16 243.99 410.71 250.04 419.59 256.48 428.78 263.26 438.28 270.35 448.05 277.68 458.09 285.18 468.33 292.78 478.76 300.4 489.31 307.97 499.95 315.41 510.6 322.64 521.23 329.59 531.76 336.2 542.14 342.41 545.55 352.03 547.63 361.65 548.21 371.27 547.23 380.89 544.78 390.51 541.07 400.13 536.41 409.75 531.21 419.37 525.9 428.99 520.94 438.61 516.76 448.23 513.7 457.85 512.04 467.47 511.9 477.09 505.08 498.53 492.81 505.63 481.49 507.85 469.91 509.58 457.46 511.49 444.26 514.12 429.57 518.84 413.94 525.24 405.23 520.42 396.25 516.25 387.03 512.72 377.6 509.79 368.01 507.41 358.28 505.51 348.47 504.01 338.62 502.82 328.75 501.86 318.93 501.01 309.18 500.18 299.53 499.26 290.02 498.16 280.68 496.78 266.28 489.17 260.28 473.71 260.35 464.13 261.25 454.54 262.89 444.96 265.13 435.38 267.79 425.8 270.64 416.22 273.43 406.64 275.92 397.06 277.91 387.47 279.23 377.89 279.75 368.31 279.44 358.73 278.33 349.15 276.5 339.57 283.64 332.66 290.59 325.45 297.38 318.01 304.03 310.43 310.57 302.77 317.04 295.13 323.46 287.56 329.89 280.16 336.35 272.98 342.9 266.1 349.57 259.56 356.4 253.41 363.42 247.69 370.68 242.4 382.11 235.38 386.01 233.18" stroke-dasharray="14 0" transform="rotate(57.71428571428571, 400, 400)" opacity="0.10"></path><path d="M387.24 247.79Q403.44 257.48 420.57 268.57 438.51 280.87 457.05 294.08 475.93 307.81 494.87 321.61 513.54 335.03 531.62 347.62 534.74 364.87 533.03 382.13 526.96 399.38 518.18 416.64 509.07 433.89 502.12 451.15 499.22 468.4 501.15 485.65 489.54 489.45 478.66 491.99 468.19 493.76 457.83 495.32 447.27 497.26 436.23 500.14 424.48 504.48 411.88 510.63 394.58 502.42 376.83 496.25 358.88 491.88 340.98 488.95 323.36 486.95 306.22 485.32 289.71 483.48 273.91 480.88 272.8 463.72 274.47 446.57 278.45 429.41 283.66 412.25 288.69 395.09 292.17 377.94 293.15 360.78 291.36 343.62 304.49 330.14 316.95 316.27 328.86 302.47 340.38 289.2 351.74 276.84 363.17 265.72 381.08 251.9 387.24 247.79" stroke-dasharray="33 3" transform="rotate(62.523809523809526, 400, 400)" opacity="0.79"></path><path d="M391.22 262.4Q406.81 270.96 422.92 280.68 439.39 291.41 456.04 302.97 472.65 315.1 489.02 327.49 504.93 339.81 520.19 351.73 521.29 367 518.66 382.26 512.86 397.53 505.15 412.79 497.18 428.05 490.69 443.31 487.07 458.58 487.11 473.84 475.9 476.34 465.44 478.15 455.53 479.65 445.98 481.24 436.58 483.33 427.11 486.28 417.39 490.43 407.25 496.03 391.13 488.63 374.98 482.83 358.97 478.48 343.27 475.35 328 473.13 313.28 471.45 299.16 469.9 285.67 468.09 285.64 452.93 287.86 437.77 291.82 422.61 296.69 407.46 301.4 392.3 304.95 377.14 306.55 361.98 305.88 346.82 318.06 334.42 329.63 321.98 340.63 309.85 351.16 298.33 361.32 287.66 371.27 278.06 386.19 266.01 391.22 262.4" stroke-dasharray="13 9" transform="rotate(67.33333333333333, 400, 400)" opacity="0.48"></path><path d="M397.1 277Q411.32 284.45 425.7 292.82 440.1 302.01 454.39 311.91 468.43 322.37 482.09 333.17 495.24 344.12 507.79 354.98 507.32 368.26 504.14 381.53 498.78 394.8 492.12 408.07 485.28 421.35 479.38 434.62 475.42 447.89 474.04 461.17 463.4 462.87 453.4 464.3 443.97 465.71 435 467.39 426.35 469.58 417.9 472.52 409.51 476.42 401.05 481.43 386.85 474.87 372.88 469.52 359.23 465.3 345.99 462.07 333.22 459.65 320.95 457.81 309.2 456.29 297.94 454.84 298.84 441.67 301.42 428.5 305.26 415.33 309.72 402.15 314.05 388.98 317.55 375.81 319.62 362.64 319.92 349.47 331.11 338.49 341.79 327.71 351.98 317.35 361.69 307.59 370.97 298.59 379.9 290.45 392.83 280.12 397.1 277" stroke-dasharray="18 15" transform="rotate(72.14285714285714, 400, 400)" opacity="0.51"></path><path d="M403.6 291.6Q415.8 297.95 427.91 304.99 439.85 312.68 451.54 320.94 462.91 329.68 473.88 338.8 484.41 348.16 494.45 357.62 492.89 368.92 489.51 380.22 484.71 391.52 479.09 402.82 473.34 414.12 468.16 425.42 464.18 436.72 461.9 448.02 452.05 449.31 442.71 450.6 425.59 454.04 409.57 458.88 402.02 462.45 394.63 466.83 382.86 461.13 371.42 456.32 360.35 452.34 349.66 449.12 339.37 446.57 329.48 444.56 316.19 436.64 315.16 419.14 318.76 407.93 322.75 396.72 326.64 385.51 329.97 374.3 332.31 363.08 333.4 351.87 343.48 342.57 353.19 333.59 362.52 325.04 371.45 317.02 379.99 309.63 388.17 302.91 399.81 294.25 403.6 291.6" stroke-dasharray="28 29" transform="rotate(76.95238095238095, 400, 400)" opacity="0.61"></path><path d="M409.33 306.2Q419.08 311.46 428.65 317.21 437.99 323.43 447.06 330.09 455.85 337.13 464.32 344.51 472.45 352.15 480.23 359.98 478.06 369.33 474.78 378.68 470.67 388.02 466.07 397.37 461.38 406.72 456.99 416.07 447.55 430.68 433.39 437.21 417.71 440.7 402.95 445.34 388.14 447.96 371.41 443.22 354.78 436.79 339 431.84 328.96 424.7 329.08 410.04 332.31 400.77 335.78 391.49 339.17 382.21 342.21 372.94 344.63 363.66 346.22 354.38 355.05 346.92 363.64 339.77 371.97 333 380.01 326.67 387.77 320.8 395.24 315.43 405.87 308.38 409.33 306.2" stroke-dasharray="25 33" transform="rotate(81.76190476190476, 400, 400)" opacity="0.61"></path><path d="M413.04 320.8Q427.28 329.48 440.77 339.42 453.43 350.46 465.24 362.39 460 377.25 453.04 392.11 445.85 406.97 439.98 421.82 425.35 424.28 411.54 427.54 398.57 431.91 386.39 437.62 373.41 430.23 361.18 424.33 349.6 419.77 338.56 416.35 343.16 401.6 348.8 386.84 354.27 372.09 358.38 357.33 373.02 346.37 387.08 336.56 406.74 324.41 413.04 320.8" stroke-dasharray="24 27" transform="rotate(86.57142857142857, 400, 400)" opacity="0.58"></path><path d="M413.93 335.4Q423.53 341.82 432.68 348.96 441.37 356.79 449.62 365.23 445.2 376.29 440.01 387.37 434.7 398.44 429.91 409.51 418.39 411.92 407.27 414.91 396.59 418.58 386.36 423.02 377.67 417.34 369.32 412.49 359.33 401.25 361.83 383.07 366.16 372.06 369.85 361.06 381.32 353.54 392.53 346.74 408.67 338.05 413.93 335.4" stroke-dasharray="33 18" transform="rotate(91.38095238095238, 400, 400)" opacity="0.88"></path><path d="M411.81 350.01Q423.04 358.75 433.57 368.79 426.98 383.48 420.18 398.17 404.42 402.64 389.28 408.42 378.91 401.03 368.83 395.07 374.86 380.45 380.7 365.81 404.12 353.62 411.81 350.01" stroke-dasharray="15 32" transform="rotate(96.19047619047619, 400, 400)" opacity="0.27"></path></g></svg>