<svg clip-rule="evenodd" fill-rule="evenodd" height="512" stroke-linejoin="round" stroke-miterlimit="2" viewBox="0 0 32 32" width="512" xmlns="http://www.w3.org/2000/svg"><path d="m4.5 6.644-1.085 1.618c-.153.229-.464.29-.693.136-.23-.153-.291-.464-.137-.693l1.584-2.364c.186-.277.498-.443.831-.443s.645.166.831.443l1.584 2.364c.154.229.093.54-.137.693-.229.154-.54.093-.693-.136l-1.085-1.618v18.356c0 .232.052.451.146.647l18.5-18.501c.196-.195.512-.195.708 0 .195.196.195.512 0 .708l-18.501 18.5c.196.094.415.146.647.146h19.356l-1.618-1.085c-.229-.153-.29-.464-.136-.693.153-.23.464-.291.693-.137l2.364 1.584c.277.186.443.498.443.831s-.166.645-.443.831l-2.364 1.584c-.229.154-.54.093-.693-.137-.154-.229-.093-.54.136-.693l1.618-1.085h-19.356c-1.381 0-2.5-1.119-2.5-2.5v-18.356zm9.462 3.076c.368-.443.923-.726 1.544-.726 1.107 0 2.005.899 2.005 2.006s-.898 2.006-2.005 2.006c-.168 0-.331-.021-.487-.06-.872-.218-1.519-1.007-1.519-1.946 0-.486.173-.932.462-1.28zm.769.639c-.144.174-.231.397-.231.641 0 .471.324.867.761.976.079.019.16.03.245.03.555 0 1.005-.451 1.005-1.006s-.45-1.006-1.005-1.006c-.312 0-.59.142-.775.365zm1.725-5.639c.368-.443.923-.726 1.544-.726 1.107 0 2.006.899 2.006 2.006s-.899 2.006-2.006 2.006c-.168 0-.331-.021-.486-.06-.873-.218-1.52-1.007-1.52-1.946 0-.486.174-.932.462-1.28zm.77.639c-.145.174-.232.397-.232.641 0 .471.325.867.762.976.078.019.16.03.244.03.555 0 1.006-.451 1.006-1.006s-.451-1.006-1.006-1.006c-.311 0-.59.142-.774.365zm-8.275 2.856c.367-.444.923-.726 1.543-.726 1.107 0 2.006.898 2.006 2.005s-.899 2.006-2.006 2.006c-.167 0-.33-.021-.486-.06-.872-.217-1.519-1.006-1.519-1.946 0-.486.173-.932.462-1.279zm.769.638c-.144.174-.231.398-.231.641 0 .471.324.867.761.976.078.02.16.03.244.03.555 0 1.006-.451 1.006-1.006s-.451-1.005-1.006-1.005c-.311 0-.589.142-.774.364zm-1.769 7.373c.367-.444.923-.726 1.543-.726 1.107 0 2.006.899 2.006 2.006s-.899 2.005-2.006 2.005c-.167 0-.33-.021-.486-.059-.872-.218-1.519-1.007-1.519-1.946 0-.487.173-.933.462-1.28zm.769.638c-.144.174-.231.398-.231.642 0 .47.324.866.761.975.078.02.16.03.244.03.555 0 1.006-.45 1.006-1.005s-.451-1.006-1.006-1.006c-.311 0-.589.142-.774.364zm8.197 4.802v1.834c0 .265-.105.52-.293.707-.187.188-.442.293-.707.293h-1.834c-.265 0-.52-.105-.707-.293-.188-.187-.293-.442-.293-.707v-1.834c0-.266.105-.52.293-.708.187-.187.442-.292.707-.292h1.834c.265 0 .52.105.707.292.188.188.293.442.293.708zm-2.834 0v1.834h1.834v-1.834zm9.251-6v1.834c0 .265-.105.52-.292.707-.188.188-.442.293-.708.293h-1.834c-.265 0-.52-.105-.707-.293-.188-.187-.293-.442-.293-.707v-1.834c0-.266.105-.52.293-.708.187-.187.442-.292.707-.292h1.834c.266 0 .52.105.708.292.187.188.292.442.292.708zm-2.834 0v1.834h1.834v-1.834zm2.417 5.417v1.834c0 .265-.105.52-.293.707-.187.188-.442.293-.707.293h-1.834c-.265 0-.52-.105-.707-.293-.188-.187-.293-.442-.293-.707v-1.834c0-.265.105-.52.293-.707.187-.188.442-.293.707-.293h1.834c.265 0 .52.105.707.293.188.187.293.442.293.707zm-2.834 0v1.834h1.834v-1.834zm8.417-4v1.834c0 .265-.105.52-.293.707-.187.188-.442.293-.707.293h-1.834c-.266 0-.52-.105-.708-.293-.187-.187-.292-.442-.292-.707v-1.834c0-.265.105-.52.292-.707.188-.188.442-.293.708-.293h1.834c.265 0 .52.105.707.293.188.187.293.442.293.707zm-2.834 0v1.834h1.834v-1.834z"/></svg>