<svg xmlns="http://www.w3.org/2000/svg" version="1.1" xmlns:xlink="http://www.w3.org/1999/xlink" xmlns:svgjs="http://svgjs.dev/svgjs" viewBox="0 0 2400 800"><g fill="hsl(359, 96%, 79%)" transform="matrix(1,0,0,1,11.3580322265625,176.19871520996094)"><path d="M-10,10C10.601851851851851,18.958333333333336,49.76851851851852,64.875,88.88888888888889,53C128.00925925925924,41.125,140.74074074074073,-39.291666666666664,177.77777777777777,-47C214.8148148148148,-54.708333333333336,229.6296296296296,21.208333333333336,266.66666666666663,16C303.7037037037037,10.791666666666666,318.5185185185185,-79.08333333333333,355.55555555555554,-72C392.5925925925926,-64.91666666666667,407.40740740740745,39.79166666666667,444.44444444444446,50C481.48148148148147,60.20833333333333,496.29629629629625,-18.416666666666668,533.3333333333333,-23C570.3703703703703,-27.583333333333332,585.1851851851851,31.333333333333332,622.2222222222222,28C659.2592592592592,24.666666666666668,674.074074074074,-44.208333333333336,711.1111111111111,-39C748.1481481481482,-33.791666666666664,762.9629629629629,55.708333333333336,800,53C837.0370370370371,50.291666666666664,851.8518518518518,-58.25,888.8888888888889,-52C925.925925925926,-45.75,940.7407407407408,79.04166666666667,977.7777777777777,83C1014.8148148148147,86.95833333333333,1029.6296296296296,-31.125,1066.6666666666665,-33C1103.7037037037035,-34.875,1118.5185185185185,78.375,1155.5555555555554,74C1192.5925925925924,69.625,1207.4074074074074,-48.583333333333336,1244.4444444444443,-54C1281.4814814814813,-59.416666666666664,1296.2962962962963,33.20833333333333,1333.3333333333333,48C1370.3703703703702,62.79166666666667,1385.1851851851852,15.958333333333334,1422.2222222222222,17C1459.2592592592591,18.041666666666668,1474.0740740740741,59.875,1511.111111111111,53C1548.148148148148,46.125,1562.962962962963,-18.083333333333332,1600,-16C1637.037037037037,-13.916666666666666,1651.851851851852,56.333333333333336,1688.888888888889,63C1725.9259259259259,69.66666666666667,1740.7407407407409,6,1777.7777777777778,16C1814.8148148148148,26,1829.6296296296296,121.20833333333333,1866.6666666666665,111C1903.7037037037035,100.79166666666667,1918.5185185185185,-27.375,1955.5555555555554,-33C1992.5925925925924,-38.625,2007.4074074074074,72.95833333333333,2044.4444444444443,84C2081.4814814814813,95.04166666666667,2096.296296296296,16.25,2133.333333333333,20C2170.37037037037,23.75,2185.185185185185,105.33333333333333,2222.222222222222,102C2259.259259259259,98.66666666666667,2274.074074074074,4.416666666666667,2311.111111111111,4C2348.148148148148,3.5833333333333335,2329.3981481481483,17.5,2400,100C2470.6018518518517,182.5,3254.1666666666665,233.33333333333331,2650,400C2045.8333333333335,566.6666666666667,156.25,795.8333333333334,-500,900" transform="matrix(1,0,0,1,0,35)" opacity="0.05"></path><path d="M-10,10C10.601851851851851,18.958333333333336,49.76851851851852,64.875,88.88888888888889,53C128.00925925925924,41.125,140.74074074074073,-39.291666666666664,177.77777777777777,-47C214.8148148148148,-54.708333333333336,229.6296296296296,21.208333333333336,266.66666666666663,16C303.7037037037037,10.791666666666666,318.5185185185185,-79.08333333333333,355.55555555555554,-72C392.5925925925926,-64.91666666666667,407.40740740740745,39.79166666666667,444.44444444444446,50C481.48148148148147,60.20833333333333,496.29629629629625,-18.416666666666668,533.3333333333333,-23C570.3703703703703,-27.583333333333332,585.1851851851851,31.333333333333332,622.2222222222222,28C659.2592592592592,24.666666666666668,674.074074074074,-44.208333333333336,711.1111111111111,-39C748.1481481481482,-33.791666666666664,762.9629629629629,55.708333333333336,800,53C837.0370370370371,50.291666666666664,851.8518518518518,-58.25,888.8888888888889,-52C925.925925925926,-45.75,940.7407407407408,79.04166666666667,977.7777777777777,83C1014.8148148148147,86.95833333333333,1029.6296296296296,-31.125,1066.6666666666665,-33C1103.7037037037035,-34.875,1118.5185185185185,78.375,1155.5555555555554,74C1192.5925925925924,69.625,1207.4074074074074,-48.583333333333336,1244.4444444444443,-54C1281.4814814814813,-59.416666666666664,1296.2962962962963,33.20833333333333,1333.3333333333333,48C1370.3703703703702,62.79166666666667,1385.1851851851852,15.958333333333334,1422.2222222222222,17C1459.2592592592591,18.041666666666668,1474.0740740740741,59.875,1511.111111111111,53C1548.148148148148,46.125,1562.962962962963,-18.083333333333332,1600,-16C1637.037037037037,-13.916666666666666,1651.851851851852,56.333333333333336,1688.888888888889,63C1725.9259259259259,69.66666666666667,1740.7407407407409,6,1777.7777777777778,16C1814.8148148148148,26,1829.6296296296296,121.20833333333333,1866.6666666666665,111C1903.7037037037035,100.79166666666667,1918.5185185185185,-27.375,1955.5555555555554,-33C1992.5925925925924,-38.625,2007.4074074074074,72.95833333333333,2044.4444444444443,84C2081.4814814814813,95.04166666666667,2096.296296296296,16.25,2133.333333333333,20C2170.37037037037,23.75,2185.185185185185,105.33333333333333,2222.222222222222,102C2259.259259259259,98.66666666666667,2274.074074074074,4.416666666666667,2311.111111111111,4C2348.148148148148,3.5833333333333335,2329.3981481481483,17.5,2400,100C2470.6018518518517,182.5,3254.1666666666665,233.33333333333331,2650,400C2045.8333333333335,566.6666666666667,156.25,795.8333333333334,-500,900" transform="matrix(1,0,0,1,0,70)" opacity="0.15"></path><path d="M-10,10C10.601851851851851,18.958333333333336,49.76851851851852,64.875,88.88888888888889,53C128.00925925925924,41.125,140.74074074074073,-39.291666666666664,177.77777777777777,-47C214.8148148148148,-54.708333333333336,229.6296296296296,21.208333333333336,266.66666666666663,16C303.7037037037037,10.791666666666666,318.5185185185185,-79.08333333333333,355.55555555555554,-72C392.5925925925926,-64.91666666666667,407.40740740740745,39.79166666666667,444.44444444444446,50C481.48148148148147,60.20833333333333,496.29629629629625,-18.416666666666668,533.3333333333333,-23C570.3703703703703,-27.583333333333332,585.1851851851851,31.333333333333332,622.2222222222222,28C659.2592592592592,24.666666666666668,674.074074074074,-44.208333333333336,711.1111111111111,-39C748.1481481481482,-33.791666666666664,762.9629629629629,55.708333333333336,800,53C837.0370370370371,50.291666666666664,851.8518518518518,-58.25,888.8888888888889,-52C925.925925925926,-45.75,940.7407407407408,79.04166666666667,977.7777777777777,83C1014.8148148148147,86.95833333333333,1029.6296296296296,-31.125,1066.6666666666665,-33C1103.7037037037035,-34.875,1118.5185185185185,78.375,1155.5555555555554,74C1192.5925925925924,69.625,1207.4074074074074,-48.583333333333336,1244.4444444444443,-54C1281.4814814814813,-59.416666666666664,1296.2962962962963,33.20833333333333,1333.3333333333333,48C1370.3703703703702,62.79166666666667,1385.1851851851852,15.958333333333334,1422.2222222222222,17C1459.2592592592591,18.041666666666668,1474.0740740740741,59.875,1511.111111111111,53C1548.148148148148,46.125,1562.962962962963,-18.083333333333332,1600,-16C1637.037037037037,-13.916666666666666,1651.851851851852,56.333333333333336,1688.888888888889,63C1725.9259259259259,69.66666666666667,1740.7407407407409,6,1777.7777777777778,16C1814.8148148148148,26,1829.6296296296296,121.20833333333333,1866.6666666666665,111C1903.7037037037035,100.79166666666667,1918.5185185185185,-27.375,1955.5555555555554,-33C1992.5925925925924,-38.625,2007.4074074074074,72.95833333333333,2044.4444444444443,84C2081.4814814814813,95.04166666666667,2096.296296296296,16.25,2133.333333333333,20C2170.37037037037,23.75,2185.185185185185,105.33333333333333,2222.222222222222,102C2259.259259259259,98.66666666666667,2274.074074074074,4.416666666666667,2311.111111111111,4C2348.148148148148,3.5833333333333335,2329.3981481481483,17.5,2400,100C2470.6018518518517,182.5,3254.1666666666665,233.33333333333331,2650,400C2045.8333333333335,566.6666666666667,156.25,795.8333333333334,-500,900" transform="matrix(1,0,0,1,0,105)" opacity="0.24"></path><path d="M-10,10C10.601851851851851,18.958333333333336,49.76851851851852,64.875,88.88888888888889,53C128.00925925925924,41.125,140.74074074074073,-39.291666666666664,177.77777777777777,-47C214.8148148148148,-54.708333333333336,229.6296296296296,21.208333333333336,266.66666666666663,16C303.7037037037037,10.791666666666666,318.5185185185185,-79.08333333333333,355.55555555555554,-72C392.5925925925926,-64.91666666666667,407.40740740740745,39.79166666666667,444.44444444444446,50C481.48148148148147,60.20833333333333,496.29629629629625,-18.416666666666668,533.3333333333333,-23C570.3703703703703,-27.583333333333332,585.1851851851851,31.333333333333332,622.2222222222222,28C659.2592592592592,24.666666666666668,674.074074074074,-44.208333333333336,711.1111111111111,-39C748.1481481481482,-33.791666666666664,762.9629629629629,55.708333333333336,800,53C837.0370370370371,50.291666666666664,851.8518518518518,-58.25,888.8888888888889,-52C925.925925925926,-45.75,940.7407407407408,79.04166666666667,977.7777777777777,83C1014.8148148148147,86.95833333333333,1029.6296296296296,-31.125,1066.6666666666665,-33C1103.7037037037035,-34.875,1118.5185185185185,78.375,1155.5555555555554,74C1192.5925925925924,69.625,1207.4074074074074,-48.583333333333336,1244.4444444444443,-54C1281.4814814814813,-59.416666666666664,1296.2962962962963,33.20833333333333,1333.3333333333333,48C1370.3703703703702,62.79166666666667,1385.1851851851852,15.958333333333334,1422.2222222222222,17C1459.2592592592591,18.041666666666668,1474.0740740740741,59.875,1511.111111111111,53C1548.148148148148,46.125,1562.962962962963,-18.083333333333332,1600,-16C1637.037037037037,-13.916666666666666,1651.851851851852,56.333333333333336,1688.888888888889,63C1725.9259259259259,69.66666666666667,1740.7407407407409,6,1777.7777777777778,16C1814.8148148148148,26,1829.6296296296296,121.20833333333333,1866.6666666666665,111C1903.7037037037035,100.79166666666667,1918.5185185185185,-27.375,1955.5555555555554,-33C1992.5925925925924,-38.625,2007.4074074074074,72.95833333333333,2044.4444444444443,84C2081.4814814814813,95.04166666666667,2096.296296296296,16.25,2133.333333333333,20C2170.37037037037,23.75,2185.185185185185,105.33333333333333,2222.222222222222,102C2259.259259259259,98.66666666666667,2274.074074074074,4.416666666666667,2311.111111111111,4C2348.148148148148,3.5833333333333335,2329.3981481481483,17.5,2400,100C2470.6018518518517,182.5,3254.1666666666665,233.33333333333331,2650,400C2045.8333333333335,566.6666666666667,156.25,795.8333333333334,-500,900" transform="matrix(1,0,0,1,0,140)" opacity="0.34"></path><path d="M-10,10C10.601851851851851,18.958333333333336,49.76851851851852,64.875,88.88888888888889,53C128.00925925925924,41.125,140.74074074074073,-39.291666666666664,177.77777777777777,-47C214.8148148148148,-54.708333333333336,229.6296296296296,21.208333333333336,266.66666666666663,16C303.7037037037037,10.791666666666666,318.5185185185185,-79.08333333333333,355.55555555555554,-72C392.5925925925926,-64.91666666666667,407.40740740740745,39.79166666666667,444.44444444444446,50C481.48148148148147,60.20833333333333,496.29629629629625,-18.416666666666668,533.3333333333333,-23C570.3703703703703,-27.583333333333332,585.1851851851851,31.333333333333332,622.2222222222222,28C659.2592592592592,24.666666666666668,674.074074074074,-44.208333333333336,711.1111111111111,-39C748.1481481481482,-33.791666666666664,762.9629629629629,55.708333333333336,800,53C837.0370370370371,50.291666666666664,851.8518518518518,-58.25,888.8888888888889,-52C925.925925925926,-45.75,940.7407407407408,79.04166666666667,977.7777777777777,83C1014.8148148148147,86.95833333333333,1029.6296296296296,-31.125,1066.6666666666665,-33C1103.7037037037035,-34.875,1118.5185185185185,78.375,1155.5555555555554,74C1192.5925925925924,69.625,1207.4074074074074,-48.583333333333336,1244.4444444444443,-54C1281.4814814814813,-59.416666666666664,1296.2962962962963,33.20833333333333,1333.3333333333333,48C1370.3703703703702,62.79166666666667,1385.1851851851852,15.958333333333334,1422.2222222222222,17C1459.2592592592591,18.041666666666668,1474.0740740740741,59.875,1511.111111111111,53C1548.148148148148,46.125,1562.962962962963,-18.083333333333332,1600,-16C1637.037037037037,-13.916666666666666,1651.851851851852,56.333333333333336,1688.888888888889,63C1725.9259259259259,69.66666666666667,1740.7407407407409,6,1777.7777777777778,16C1814.8148148148148,26,1829.6296296296296,121.20833333333333,1866.6666666666665,111C1903.7037037037035,100.79166666666667,1918.5185185185185,-27.375,1955.5555555555554,-33C1992.5925925925924,-38.625,2007.4074074074074,72.95833333333333,2044.4444444444443,84C2081.4814814814813,95.04166666666667,2096.296296296296,16.25,2133.333333333333,20C2170.37037037037,23.75,2185.185185185185,105.33333333333333,2222.222222222222,102C2259.259259259259,98.66666666666667,2274.074074074074,4.416666666666667,2311.111111111111,4C2348.148148148148,3.5833333333333335,2329.3981481481483,17.5,2400,100C2470.6018518518517,182.5,3254.1666666666665,233.33333333333331,2650,400C2045.8333333333335,566.6666666666667,156.25,795.8333333333334,-500,900" transform="matrix(1,0,0,1,0,175)" opacity="0.43"></path><path d="M-10,10C10.601851851851851,18.958333333333336,49.76851851851852,64.875,88.88888888888889,53C128.00925925925924,41.125,140.74074074074073,-39.291666666666664,177.77777777777777,-47C214.8148148148148,-54.708333333333336,229.6296296296296,21.208333333333336,266.66666666666663,16C303.7037037037037,10.791666666666666,318.5185185185185,-79.08333333333333,355.55555555555554,-72C392.5925925925926,-64.91666666666667,407.40740740740745,39.79166666666667,444.44444444444446,50C481.48148148148147,60.20833333333333,496.29629629629625,-18.416666666666668,533.3333333333333,-23C570.3703703703703,-27.583333333333332,585.1851851851851,31.333333333333332,622.2222222222222,28C659.2592592592592,24.666666666666668,674.074074074074,-44.208333333333336,711.1111111111111,-39C748.1481481481482,-33.791666666666664,762.9629629629629,55.708333333333336,800,53C837.0370370370371,50.291666666666664,851.8518518518518,-58.25,888.8888888888889,-52C925.925925925926,-45.75,940.7407407407408,79.04166666666667,977.7777777777777,83C1014.8148148148147,86.95833333333333,1029.6296296296296,-31.125,1066.6666666666665,-33C1103.7037037037035,-34.875,1118.5185185185185,78.375,1155.5555555555554,74C1192.5925925925924,69.625,1207.4074074074074,-48.583333333333336,1244.4444444444443,-54C1281.4814814814813,-59.416666666666664,1296.2962962962963,33.20833333333333,1333.3333333333333,48C1370.3703703703702,62.79166666666667,1385.1851851851852,15.958333333333334,1422.2222222222222,17C1459.2592592592591,18.041666666666668,1474.0740740740741,59.875,1511.111111111111,53C1548.148148148148,46.125,1562.962962962963,-18.083333333333332,1600,-16C1637.037037037037,-13.916666666666666,1651.851851851852,56.333333333333336,1688.888888888889,63C1725.9259259259259,69.66666666666667,1740.7407407407409,6,1777.7777777777778,16C1814.8148148148148,26,1829.6296296296296,121.20833333333333,1866.6666666666665,111C1903.7037037037035,100.79166666666667,1918.5185185185185,-27.375,1955.5555555555554,-33C1992.5925925925924,-38.625,2007.4074074074074,72.95833333333333,2044.4444444444443,84C2081.4814814814813,95.04166666666667,2096.296296296296,16.25,2133.333333333333,20C2170.37037037037,23.75,2185.185185185185,105.33333333333333,2222.222222222222,102C2259.259259259259,98.66666666666667,2274.074074074074,4.416666666666667,2311.111111111111,4C2348.148148148148,3.5833333333333335,2329.3981481481483,17.5,2400,100C2470.6018518518517,182.5,3254.1666666666665,233.33333333333331,2650,400C2045.8333333333335,566.6666666666667,156.25,795.8333333333334,-500,900" transform="matrix(1,0,0,1,0,210)" opacity="0.53"></path><path d="M-10,10C10.601851851851851,18.958333333333336,49.76851851851852,64.875,88.88888888888889,53C128.00925925925924,41.125,140.74074074074073,-39.291666666666664,177.77777777777777,-47C214.8148148148148,-54.708333333333336,229.6296296296296,21.208333333333336,266.66666666666663,16C303.7037037037037,10.791666666666666,318.5185185185185,-79.08333333333333,355.55555555555554,-72C392.5925925925926,-64.91666666666667,407.40740740740745,39.79166666666667,444.44444444444446,50C481.48148148148147,60.20833333333333,496.29629629629625,-18.416666666666668,533.3333333333333,-23C570.3703703703703,-27.583333333333332,585.1851851851851,31.333333333333332,622.2222222222222,28C659.2592592592592,24.666666666666668,674.074074074074,-44.208333333333336,711.1111111111111,-39C748.1481481481482,-33.791666666666664,762.9629629629629,55.708333333333336,800,53C837.0370370370371,50.291666666666664,851.8518518518518,-58.25,888.8888888888889,-52C925.925925925926,-45.75,940.7407407407408,79.04166666666667,977.7777777777777,83C1014.8148148148147,86.95833333333333,1029.6296296296296,-31.125,1066.6666666666665,-33C1103.7037037037035,-34.875,1118.5185185185185,78.375,1155.5555555555554,74C1192.5925925925924,69.625,1207.4074074074074,-48.583333333333336,1244.4444444444443,-54C1281.4814814814813,-59.416666666666664,1296.2962962962963,33.20833333333333,1333.3333333333333,48C1370.3703703703702,62.79166666666667,1385.1851851851852,15.958333333333334,1422.2222222222222,17C1459.2592592592591,18.041666666666668,1474.0740740740741,59.875,1511.111111111111,53C1548.148148148148,46.125,1562.962962962963,-18.083333333333332,1600,-16C1637.037037037037,-13.916666666666666,1651.851851851852,56.333333333333336,1688.888888888889,63C1725.9259259259259,69.66666666666667,1740.7407407407409,6,1777.7777777777778,16C1814.8148148148148,26,1829.6296296296296,121.20833333333333,1866.6666666666665,111C1903.7037037037035,100.79166666666667,1918.5185185185185,-27.375,1955.5555555555554,-33C1992.5925925925924,-38.625,2007.4074074074074,72.95833333333333,2044.4444444444443,84C2081.4814814814813,95.04166666666667,2096.296296296296,16.25,2133.333333333333,20C2170.37037037037,23.75,2185.185185185185,105.33333333333333,2222.222222222222,102C2259.259259259259,98.66666666666667,2274.074074074074,4.416666666666667,2311.111111111111,4C2348.148148148148,3.5833333333333335,2329.3981481481483,17.5,2400,100C2470.6018518518517,182.5,3254.1666666666665,233.33333333333331,2650,400C2045.8333333333335,566.6666666666667,156.25,795.8333333333334,-500,900" transform="matrix(1,0,0,1,0,245)" opacity="0.62"></path><path d="M-10,10C10.601851851851851,18.958333333333336,49.76851851851852,64.875,88.88888888888889,53C128.00925925925924,41.125,140.74074074074073,-39.291666666666664,177.77777777777777,-47C214.8148148148148,-54.708333333333336,229.6296296296296,21.208333333333336,266.66666666666663,16C303.7037037037037,10.791666666666666,318.5185185185185,-79.08333333333333,355.55555555555554,-72C392.5925925925926,-64.91666666666667,407.40740740740745,39.79166666666667,444.44444444444446,50C481.48148148148147,60.20833333333333,496.29629629629625,-18.416666666666668,533.3333333333333,-23C570.3703703703703,-27.583333333333332,585.1851851851851,31.333333333333332,622.2222222222222,28C659.2592592592592,24.666666666666668,674.074074074074,-44.208333333333336,711.1111111111111,-39C748.1481481481482,-33.791666666666664,762.9629629629629,55.708333333333336,800,53C837.0370370370371,50.291666666666664,851.8518518518518,-58.25,888.8888888888889,-52C925.925925925926,-45.75,940.7407407407408,79.04166666666667,977.7777777777777,83C1014.8148148148147,86.95833333333333,1029.6296296296296,-31.125,1066.6666666666665,-33C1103.7037037037035,-34.875,1118.5185185185185,78.375,1155.5555555555554,74C1192.5925925925924,69.625,1207.4074074074074,-48.583333333333336,1244.4444444444443,-54C1281.4814814814813,-59.416666666666664,1296.2962962962963,33.20833333333333,1333.3333333333333,48C1370.3703703703702,62.79166666666667,1385.1851851851852,15.958333333333334,1422.2222222222222,17C1459.2592592592591,18.041666666666668,1474.0740740740741,59.875,1511.111111111111,53C1548.148148148148,46.125,1562.962962962963,-18.083333333333332,1600,-16C1637.037037037037,-13.916666666666666,1651.851851851852,56.333333333333336,1688.888888888889,63C1725.9259259259259,69.66666666666667,1740.7407407407409,6,1777.7777777777778,16C1814.8148148148148,26,1829.6296296296296,121.20833333333333,1866.6666666666665,111C1903.7037037037035,100.79166666666667,1918.5185185185185,-27.375,1955.5555555555554,-33C1992.5925925925924,-38.625,2007.4074074074074,72.95833333333333,2044.4444444444443,84C2081.4814814814813,95.04166666666667,2096.296296296296,16.25,2133.333333333333,20C2170.37037037037,23.75,2185.185185185185,105.33333333333333,2222.222222222222,102C2259.259259259259,98.66666666666667,2274.074074074074,4.416666666666667,2311.111111111111,4C2348.148148148148,3.5833333333333335,2329.3981481481483,17.5,2400,100C2470.6018518518517,182.5,3254.1666666666665,233.33333333333331,2650,400C2045.8333333333335,566.6666666666667,156.25,795.8333333333334,-500,900" transform="matrix(1,0,0,1,0,280)" opacity="0.72"></path><path d="M-10,10C10.601851851851851,18.958333333333336,49.76851851851852,64.875,88.88888888888889,53C128.00925925925924,41.125,140.74074074074073,-39.291666666666664,177.77777777777777,-47C214.8148148148148,-54.708333333333336,229.6296296296296,21.208333333333336,266.66666666666663,16C303.7037037037037,10.791666666666666,318.5185185185185,-79.08333333333333,355.55555555555554,-72C392.5925925925926,-64.91666666666667,407.40740740740745,39.79166666666667,444.44444444444446,50C481.48148148148147,60.20833333333333,496.29629629629625,-18.416666666666668,533.3333333333333,-23C570.3703703703703,-27.583333333333332,585.1851851851851,31.333333333333332,622.2222222222222,28C659.2592592592592,24.666666666666668,674.074074074074,-44.208333333333336,711.1111111111111,-39C748.1481481481482,-33.791666666666664,762.9629629629629,55.708333333333336,800,53C837.0370370370371,50.291666666666664,851.8518518518518,-58.25,888.8888888888889,-52C925.925925925926,-45.75,940.7407407407408,79.04166666666667,977.7777777777777,83C1014.8148148148147,86.95833333333333,1029.6296296296296,-31.125,1066.6666666666665,-33C1103.7037037037035,-34.875,1118.5185185185185,78.375,1155.5555555555554,74C1192.5925925925924,69.625,1207.4074074074074,-48.583333333333336,1244.4444444444443,-54C1281.4814814814813,-59.416666666666664,1296.2962962962963,33.20833333333333,1333.3333333333333,48C1370.3703703703702,62.79166666666667,1385.1851851851852,15.958333333333334,1422.2222222222222,17C1459.2592592592591,18.041666666666668,1474.0740740740741,59.875,1511.111111111111,53C1548.148148148148,46.125,1562.962962962963,-18.083333333333332,1600,-16C1637.037037037037,-13.916666666666666,1651.851851851852,56.333333333333336,1688.888888888889,63C1725.9259259259259,69.66666666666667,1740.7407407407409,6,1777.7777777777778,16C1814.8148148148148,26,1829.6296296296296,121.20833333333333,1866.6666666666665,111C1903.7037037037035,100.79166666666667,1918.5185185185185,-27.375,1955.5555555555554,-33C1992.5925925925924,-38.625,2007.4074074074074,72.95833333333333,2044.4444444444443,84C2081.4814814814813,95.04166666666667,2096.296296296296,16.25,2133.333333333333,20C2170.37037037037,23.75,2185.185185185185,105.33333333333333,2222.222222222222,102C2259.259259259259,98.66666666666667,2274.074074074074,4.416666666666667,2311.111111111111,4C2348.148148148148,3.5833333333333335,2329.3981481481483,17.5,2400,100C2470.6018518518517,182.5,3254.1666666666665,233.33333333333331,2650,400C2045.8333333333335,566.6666666666667,156.25,795.8333333333334,-500,900" transform="matrix(1,0,0,1,0,315)" opacity="0.81"></path><path d="M-10,10C10.601851851851851,18.958333333333336,49.76851851851852,64.875,88.88888888888889,53C128.00925925925924,41.125,140.74074074074073,-39.291666666666664,177.77777777777777,-47C214.8148148148148,-54.708333333333336,229.6296296296296,21.208333333333336,266.66666666666663,16C303.7037037037037,10.791666666666666,318.5185185185185,-79.08333333333333,355.55555555555554,-72C392.5925925925926,-64.91666666666667,407.40740740740745,39.79166666666667,444.44444444444446,50C481.48148148148147,60.20833333333333,496.29629629629625,-18.416666666666668,533.3333333333333,-23C570.3703703703703,-27.583333333333332,585.1851851851851,31.333333333333332,622.2222222222222,28C659.2592592592592,24.666666666666668,674.074074074074,-44.208333333333336,711.1111111111111,-39C748.1481481481482,-33.791666666666664,762.9629629629629,55.708333333333336,800,53C837.0370370370371,50.291666666666664,851.8518518518518,-58.25,888.8888888888889,-52C925.925925925926,-45.75,940.7407407407408,79.04166666666667,977.7777777777777,83C1014.8148148148147,86.95833333333333,1029.6296296296296,-31.125,1066.6666666666665,-33C1103.7037037037035,-34.875,1118.5185185185185,78.375,1155.5555555555554,74C1192.5925925925924,69.625,1207.4074074074074,-48.583333333333336,1244.4444444444443,-54C1281.4814814814813,-59.416666666666664,1296.2962962962963,33.20833333333333,1333.3333333333333,48C1370.3703703703702,62.79166666666667,1385.1851851851852,15.958333333333334,1422.2222222222222,17C1459.2592592592591,18.041666666666668,1474.0740740740741,59.875,1511.111111111111,53C1548.148148148148,46.125,1562.962962962963,-18.083333333333332,1600,-16C1637.037037037037,-13.916666666666666,1651.851851851852,56.333333333333336,1688.888888888889,63C1725.9259259259259,69.66666666666667,1740.7407407407409,6,1777.7777777777778,16C1814.8148148148148,26,1829.6296296296296,121.20833333333333,1866.6666666666665,111C1903.7037037037035,100.79166666666667,1918.5185185185185,-27.375,1955.5555555555554,-33C1992.5925925925924,-38.625,2007.4074074074074,72.95833333333333,2044.4444444444443,84C2081.4814814814813,95.04166666666667,2096.296296296296,16.25,2133.333333333333,20C2170.37037037037,23.75,2185.185185185185,105.33333333333333,2222.222222222222,102C2259.259259259259,98.66666666666667,2274.074074074074,4.416666666666667,2311.111111111111,4C2348.148148148148,3.5833333333333335,2329.3981481481483,17.5,2400,100C2470.6018518518517,182.5,3254.1666666666665,233.33333333333331,2650,400C2045.8333333333335,566.6666666666667,156.25,795.8333333333334,-500,900" transform="matrix(1,0,0,1,0,350)" opacity="0.91"></path><path d="M-10,10C10.601851851851851,18.958333333333336,49.76851851851852,64.875,88.88888888888889,53C128.00925925925924,41.125,140.74074074074073,-39.291666666666664,177.77777777777777,-47C214.8148148148148,-54.708333333333336,229.6296296296296,21.208333333333336,266.66666666666663,16C303.7037037037037,10.791666666666666,318.5185185185185,-79.08333333333333,355.55555555555554,-72C392.5925925925926,-64.91666666666667,407.40740740740745,39.79166666666667,444.44444444444446,50C481.48148148148147,60.20833333333333,496.29629629629625,-18.416666666666668,533.3333333333333,-23C570.3703703703703,-27.583333333333332,585.1851851851851,31.333333333333332,622.2222222222222,28C659.2592592592592,24.666666666666668,674.074074074074,-44.208333333333336,711.1111111111111,-39C748.1481481481482,-33.791666666666664,762.9629629629629,55.708333333333336,800,53C837.0370370370371,50.291666666666664,851.8518518518518,-58.25,888.8888888888889,-52C925.925925925926,-45.75,940.7407407407408,79.04166666666667,977.7777777777777,83C1014.8148148148147,86.95833333333333,1029.6296296296296,-31.125,1066.6666666666665,-33C1103.7037037037035,-34.875,1118.5185185185185,78.375,1155.5555555555554,74C1192.5925925925924,69.625,1207.4074074074074,-48.583333333333336,1244.4444444444443,-54C1281.4814814814813,-59.416666666666664,1296.2962962962963,33.20833333333333,1333.3333333333333,48C1370.3703703703702,62.79166666666667,1385.1851851851852,15.958333333333334,1422.2222222222222,17C1459.2592592592591,18.041666666666668,1474.0740740740741,59.875,1511.111111111111,53C1548.148148148148,46.125,1562.962962962963,-18.083333333333332,1600,-16C1637.037037037037,-13.916666666666666,1651.851851851852,56.333333333333336,1688.888888888889,63C1725.9259259259259,69.66666666666667,1740.7407407407409,6,1777.7777777777778,16C1814.8148148148148,26,1829.6296296296296,121.20833333333333,1866.6666666666665,111C1903.7037037037035,100.79166666666667,1918.5185185185185,-27.375,1955.5555555555554,-33C1992.5925925925924,-38.625,2007.4074074074074,72.95833333333333,2044.4444444444443,84C2081.4814814814813,95.04166666666667,2096.296296296296,16.25,2133.333333333333,20C2170.37037037037,23.75,2185.185185185185,105.33333333333333,2222.222222222222,102C2259.259259259259,98.66666666666667,2274.074074074074,4.416666666666667,2311.111111111111,4C2348.148148148148,3.5833333333333335,2329.3981481481483,17.5,2400,100C2470.6018518518517,182.5,3254.1666666666665,233.33333333333331,2650,400C2045.8333333333335,566.6666666666667,156.25,795.8333333333334,-500,900" transform="matrix(1,0,0,1,0,385)" opacity="1.00"></path></g></svg>