<svg xmlns="http://www.w3.org/2000/svg" version="1.1" xmlns:xlink="http://www.w3.org/1999/xlink" xmlns:svgjs="http://svgjs.dev/svgjs" viewBox="0 0 2400 800"><g fill="hsl(359, 96%, 79%)" transform="matrix(1,0,0,1,11.3580322265625,314.7775650024414)"><path d="M-10,10C10.601851851851851,23.541666666666668,49.76851851851852,85.41666666666667,88.88888888888889,75C128.00925925925924,64.58333333333333,140.74074074074073,-28.75,177.77777777777777,-40C214.8148148148148,-51.25,229.6296296296296,24.541666666666668,266.66666666666663,21C303.7037037037037,17.458333333333332,318.5185185185185,-70.95833333333333,355.55555555555554,-57C392.5925925925926,-43.04166666666667,407.40740740740745,77.79166666666667,444.44444444444446,88C481.48148148148147,98.20833333333333,496.29629629629625,2.625,533.3333333333333,-8C570.3703703703703,-18.625,585.1851851851851,49.70833333333333,622.2222222222222,37C659.2592592592592,24.291666666666668,674.074074074074,-77.95833333333333,711.1111111111111,-69C748.1481481481482,-60.041666666666664,762.9629629629629,69.375,800,80C837.0370370370371,90.625,851.8518518518518,-9.25,888.8888888888889,-18C925.925925925926,-26.75,940.7407407407408,33.833333333333336,977.7777777777777,38C1014.8148148148147,42.166666666666664,1029.6296296296296,-11.958333333333332,1066.6666666666665,2C1103.7037037037035,15.958333333333332,1118.5185185185185,115,1155.5555555555554,105C1192.5925925925924,95,1207.4074074074074,-32.66666666666667,1244.4444444444443,-46C1281.4814814814813,-59.33333333333333,1296.2962962962963,41.416666666666664,1333.3333333333333,41C1370.3703703703702,40.583333333333336,1385.1851851851852,-56.333333333333336,1422.2222222222222,-48C1459.2592592592591,-39.666666666666664,1474.0740740740741,78.5,1511.111111111111,81C1548.148148148148,83.5,1562.962962962963,-30.166666666666664,1600,-36C1637.037037037037,-41.833333333333336,1651.851851851852,42.79166666666667,1688.888888888889,53C1725.9259259259259,63.20833333333333,1740.7407407407409,6.333333333333334,1777.7777777777778,13C1814.8148148148148,19.666666666666664,1829.6296296296296,81.66666666666667,1866.6666666666665,85C1903.7037037037035,88.33333333333333,1918.5185185185185,31.291666666666668,1955.5555555555554,29C1992.5925925925924,26.708333333333332,2007.4074074074074,83.16666666666667,2044.4444444444443,74C2081.4814814814813,64.83333333333333,2096.296296296296,-25.833333333333332,2133.333333333333,-15C2170.37037037037,-4.166666666666668,2185.185185185185,117.66666666666667,2222.222222222222,126C2259.259259259259,134.33333333333334,2274.074074074074,34.791666666666664,2311.111111111111,25C2348.148148148148,15.208333333333334,2329.3981481481483,0.875,2400,79C2470.6018518518517,157.125,3254.1666666666665,228.95833333333331,2650,400C2045.8333333333335,571.0416666666667,156.25,795.8333333333334,-500,900" transform="matrix(1,0,0,1,0,35)" opacity="0.05"></path><path d="M-10,10C10.601851851851851,23.541666666666668,49.76851851851852,85.41666666666667,88.88888888888889,75C128.00925925925924,64.58333333333333,140.74074074074073,-28.75,177.77777777777777,-40C214.8148148148148,-51.25,229.6296296296296,24.541666666666668,266.66666666666663,21C303.7037037037037,17.458333333333332,318.5185185185185,-70.95833333333333,355.55555555555554,-57C392.5925925925926,-43.04166666666667,407.40740740740745,77.79166666666667,444.44444444444446,88C481.48148148148147,98.20833333333333,496.29629629629625,2.625,533.3333333333333,-8C570.3703703703703,-18.625,585.1851851851851,49.70833333333333,622.2222222222222,37C659.2592592592592,24.291666666666668,674.074074074074,-77.95833333333333,711.1111111111111,-69C748.1481481481482,-60.041666666666664,762.9629629629629,69.375,800,80C837.0370370370371,90.625,851.8518518518518,-9.25,888.8888888888889,-18C925.925925925926,-26.75,940.7407407407408,33.833333333333336,977.7777777777777,38C1014.8148148148147,42.166666666666664,1029.6296296296296,-11.958333333333332,1066.6666666666665,2C1103.7037037037035,15.958333333333332,1118.5185185185185,115,1155.5555555555554,105C1192.5925925925924,95,1207.4074074074074,-32.66666666666667,1244.4444444444443,-46C1281.4814814814813,-59.33333333333333,1296.2962962962963,41.416666666666664,1333.3333333333333,41C1370.3703703703702,40.583333333333336,1385.1851851851852,-56.333333333333336,1422.2222222222222,-48C1459.2592592592591,-39.666666666666664,1474.0740740740741,78.5,1511.111111111111,81C1548.148148148148,83.5,1562.962962962963,-30.166666666666664,1600,-36C1637.037037037037,-41.833333333333336,1651.851851851852,42.79166666666667,1688.888888888889,53C1725.9259259259259,63.20833333333333,1740.7407407407409,6.333333333333334,1777.7777777777778,13C1814.8148148148148,19.666666666666664,1829.6296296296296,81.66666666666667,1866.6666666666665,85C1903.7037037037035,88.33333333333333,1918.5185185185185,31.291666666666668,1955.5555555555554,29C1992.5925925925924,26.708333333333332,2007.4074074074074,83.16666666666667,2044.4444444444443,74C2081.4814814814813,64.83333333333333,2096.296296296296,-25.833333333333332,2133.333333333333,-15C2170.37037037037,-4.166666666666668,2185.185185185185,117.66666666666667,2222.222222222222,126C2259.259259259259,134.33333333333334,2274.074074074074,34.791666666666664,2311.111111111111,25C2348.148148148148,15.208333333333334,2329.3981481481483,0.875,2400,79C2470.6018518518517,157.125,3254.1666666666665,228.95833333333331,2650,400C2045.8333333333335,571.0416666666667,156.25,795.8333333333334,-500,900" transform="matrix(1,0,0,1,0,70)" opacity="0.53"></path><path d="M-10,10C10.601851851851851,23.541666666666668,49.76851851851852,85.41666666666667,88.88888888888889,75C128.00925925925924,64.58333333333333,140.74074074074073,-28.75,177.77777777777777,-40C214.8148148148148,-51.25,229.6296296296296,24.541666666666668,266.66666666666663,21C303.7037037037037,17.458333333333332,318.5185185185185,-70.95833333333333,355.55555555555554,-57C392.5925925925926,-43.04166666666667,407.40740740740745,77.79166666666667,444.44444444444446,88C481.48148148148147,98.20833333333333,496.29629629629625,2.625,533.3333333333333,-8C570.3703703703703,-18.625,585.1851851851851,49.70833333333333,622.2222222222222,37C659.2592592592592,24.291666666666668,674.074074074074,-77.95833333333333,711.1111111111111,-69C748.1481481481482,-60.041666666666664,762.9629629629629,69.375,800,80C837.0370370370371,90.625,851.8518518518518,-9.25,888.8888888888889,-18C925.925925925926,-26.75,940.7407407407408,33.833333333333336,977.7777777777777,38C1014.8148148148147,42.166666666666664,1029.6296296296296,-11.958333333333332,1066.6666666666665,2C1103.7037037037035,15.958333333333332,1118.5185185185185,115,1155.5555555555554,105C1192.5925925925924,95,1207.4074074074074,-32.66666666666667,1244.4444444444443,-46C1281.4814814814813,-59.33333333333333,1296.2962962962963,41.416666666666664,1333.3333333333333,41C1370.3703703703702,40.583333333333336,1385.1851851851852,-56.333333333333336,1422.2222222222222,-48C1459.2592592592591,-39.666666666666664,1474.0740740740741,78.5,1511.111111111111,81C1548.148148148148,83.5,1562.962962962963,-30.166666666666664,1600,-36C1637.037037037037,-41.833333333333336,1651.851851851852,42.79166666666667,1688.888888888889,53C1725.9259259259259,63.20833333333333,1740.7407407407409,6.333333333333334,1777.7777777777778,13C1814.8148148148148,19.666666666666664,1829.6296296296296,81.66666666666667,1866.6666666666665,85C1903.7037037037035,88.33333333333333,1918.5185185185185,31.291666666666668,1955.5555555555554,29C1992.5925925925924,26.708333333333332,2007.4074074074074,83.16666666666667,2044.4444444444443,74C2081.4814814814813,64.83333333333333,2096.296296296296,-25.833333333333332,2133.333333333333,-15C2170.37037037037,-4.166666666666668,2185.185185185185,117.66666666666667,2222.222222222222,126C2259.259259259259,134.33333333333334,2274.074074074074,34.791666666666664,2311.111111111111,25C2348.148148148148,15.208333333333334,2329.3981481481483,0.875,2400,79C2470.6018518518517,157.125,3254.1666666666665,228.95833333333331,2650,400C2045.8333333333335,571.0416666666667,156.25,795.8333333333334,-500,900" transform="matrix(1,0,0,1,0,105)" opacity="1.00"></path></g></svg>