<svg xmlns="http://www.w3.org/2000/svg" version="1.1" xmlns:xlink="http://www.w3.org/1999/xlink" xmlns:svgjs="http://svgjs.dev/svgjs" viewBox="0 0 2400 800"><g fill="hsl(359, 96%, 79%)" transform="matrix(1,0,0,1,11.3580322265625,345.0085144042969)"><path d="M-10,10C10.601851851851851,17.291666666666664,49.76851851851852,52.5,88.88888888888889,45C128.00925925925924,37.5,140.74074074074073,-34.541666666666664,177.77777777777777,-26C214.8148148148148,-17.458333333333336,229.6296296296296,86.625,266.66666666666663,86C303.7037037037037,85.375,318.5185185185185,-26.083333333333332,355.55555555555554,-29C392.5925925925926,-31.916666666666668,407.40740740740745,67.41666666666667,444.44444444444446,72C481.48148148148147,76.58333333333333,496.29629629629625,-6.791666666666667,533.3333333333333,-7C570.3703703703703,-7.208333333333333,585.1851851851851,82.04166666666667,622.2222222222222,71C659.2592592592592,59.95833333333333,674.074074074074,-61.666666666666664,711.1111111111111,-60C748.1481481481482,-58.333333333333336,762.9629629629629,76.5,800,79C837.0370370370371,81.5,851.8518518518518,-40.291666666666664,888.8888888888889,-48C925.925925925926,-55.708333333333336,940.7407407407408,33.666666666666664,977.7777777777777,42C1014.8148148148147,50.333333333333336,1029.6296296296296,-17.375,1066.6666666666665,-8C1103.7037037037035,1.375,1118.5185185185185,97.20833333333333,1155.5555555555554,87C1192.5925925925924,76.79166666666667,1207.4074074074074,-62.625,1244.4444444444443,-57C1281.4814814814813,-51.375,1296.2962962962963,112.75,1333.3333333333333,114C1370.3703703703702,115.25,1385.1851851851852,-46.208333333333336,1422.2222222222222,-51C1459.2592592592591,-55.791666666666664,1474.0740740740741,80.58333333333333,1511.111111111111,91C1548.148148148148,101.41666666666667,1562.962962962963,2.541666666666667,1600,-1C1637.037037037037,-4.541666666666667,1651.851851851852,82.75,1688.888888888889,74C1725.9259259259259,65.25,1740.7407407407409,-53.20833333333333,1777.7777777777778,-43C1814.8148148148148,-32.79166666666667,1829.6296296296296,115.70833333333333,1866.6666666666665,123C1903.7037037037035,130.29166666666666,1918.5185185185185,2.625,1955.5555555555554,-8C1992.5925925925924,-18.625,2007.4074074074074,73.66666666666667,2044.4444444444443,72C2081.4814814814813,70.33333333333333,2096.296296296296,-21.208333333333336,2133.333333333333,-16C2170.37037037037,-10.791666666666666,2185.185185185185,95.95833333333333,2222.222222222222,97C2259.259259259259,98.04166666666667,2274.074074074074,-6,2311.111111111111,-11C2348.148148148148,-16,2329.3981481481483,-12.625,2400,73C2470.6018518518517,158.625,3254.1666666666665,227.70833333333331,2650,400C2045.8333333333335,572.2916666666667,156.25,795.8333333333334,-500,900" transform="matrix(1,0,0,1,0,35)" opacity="NaN"></path></g></svg>