<svg xmlns="http://www.w3.org/2000/svg" version="1.1" xmlns:xlink="http://www.w3.org/1999/xlink" xmlns:svgjs="http://svgjs.dev/svgjs" viewBox="0 0 2400 800" opacity="1"><g fill="hsla(351, 96%, 79%, 1.00)" transform="matrix(1,0,0,1,8.7225341796875,365.2758026123047)"><path d="M-10,10C42.08333333333333,22.083333333333332,137.91666666666666,71.95833333333333,240,68C342.08333333333337,64.04166666666667,380,-2.125,480,-9C580,-15.875,620,53.75,720,35C820,16.25,860,-116.29166666666667,960,-99C1060,-81.70833333333333,1100,112.375,1200,118C1300,123.625,1340,-55.75,1440,-72C1540,-88.25,1580,27.083333333333332,1680,40C1780,52.91666666666667,1820,-20,1920,-10C2020,0,2060,104.04166666666667,2160,88C2260,71.95833333333333,2297.9166666666665,-152,2400,-87C2502.0833333333335,-22,3254.1666666666665,194.375,2650,400C2045.8333333333335,605.625,156.25,795.8333333333334,-500,900" transform="matrix(1,0,0,1,0,35)" opacity="NaN"></path></g></svg>