<?xml version="1.0" standalone="no"?><svg xmlns="http://www.w3.org/2000/svg" viewBox="0 0 1440 320"><path fill="#fd9597" fill-opacity="1" d="M0,224L20,229.3C40,235,80,245,120,256C160,267,200,277,240,266.7C280,256,320,224,360,186.7C400,149,440,107,480,80C520,53,560,43,600,53.3C640,64,680,96,720,112C760,128,800,128,840,117.3C880,107,920,85,960,96C1000,107,1040,149,1080,154.7C1120,160,1160,128,1200,128C1240,128,1280,160,1320,192C1360,224,1400,256,1420,272L1440,288L1440,0L1420,0C1400,0,1360,0,1320,0C1280,0,1240,0,1200,0C1160,0,1120,0,1080,0C1040,0,1000,0,960,0C920,0,880,0,840,0C800,0,760,0,720,0C680,0,640,0,600,0C560,0,520,0,480,0C440,0,400,0,360,0C320,0,280,0,240,0C200,0,160,0,120,0C80,0,40,0,20,0L0,0Z"></path></svg>